<?xml version="1.0" encoding="utf-8"?>
<!-- Generator: Adobe Illustrator 16.0.0, SVG Export Plug-In . SVG Version: 6.00 Build 0)  -->
<!DOCTYPE svg PUBLIC "-//W3C//DTD SVG 1.1//EN" "http://www.w3.org/Graphics/SVG/1.1/DTD/svg11.dtd">
<svg version="1.1" id="Ebene_1" xmlns="http://www.w3.org/2000/svg" xmlns:xlink="http://www.w3.org/1999/xlink" x="0px" y="0px"
	 width="12px" height="19px" viewBox="0 0 12 19" enable-background="new 0 0 12 19" xml:space="preserve">
<path fill-rule="evenodd" clip-rule="evenodd" fill="#14A1BE" d="M11.596,8.485l-1.353-1.387c-0.543-0.557-1.424-0.557-1.967,0
	l-7.869,8.067c-0.543,0.557-0.543,1.46,0,2.017L1.76,18.57c0.543,0.557,1.424,0.557,1.967,0l7.869-8.068
	C12.139,9.945,12.139,9.042,11.596,8.485z"/>
<path fill-rule="evenodd" clip-rule="evenodd" fill="#14A1BE" d="M1.76,0.418L0.408,1.804c-0.543,0.557-0.543,1.46,0,2.017
	l7.868,8.068c0.543,0.557,1.424,0.557,1.968,0l1.353-1.386c0.543-0.557,0.543-1.46,0-2.017L3.727,0.418
	C3.184-0.14,2.303-0.14,1.76,0.418z"/>
</svg>
