<?xml version="1.0" encoding="utf-8"?>
<!-- Generator: Adobe Illustrator 16.0.0, SVG Export Plug-In . SVG Version: 6.00 Build 0)  -->
<!DOCTYPE svg PUBLIC "-//W3C//DTD SVG 1.1//EN" "http://www.w3.org/Graphics/SVG/1.1/DTD/svg11.dtd">
<svg version="1.1" id="Ebene_1" xmlns="http://www.w3.org/2000/svg" xmlns:xlink="http://www.w3.org/1999/xlink" x="0px" y="0px"
	 width="12px" height="19px" viewBox="0 0 12 19" enable-background="new 0 0 12 19" xml:space="preserve">
<path fill-rule="evenodd" clip-rule="evenodd" fill="#14A1BE" d="M0.407,10.502l1.352,1.387c0.543,0.557,1.424,0.557,1.968,0
	l7.869-8.068c0.543-0.557,0.543-1.46,0-2.017l-1.352-1.387c-0.543-0.557-1.424-0.557-1.967,0L0.407,8.485
	C-0.136,9.042-0.136,9.945,0.407,10.502z"/>
<path fill-rule="evenodd" clip-rule="evenodd" fill="#14A1BE" d="M10.244,18.57l1.352-1.386c0.543-0.557,0.543-1.46,0-2.017
	L3.727,7.099c-0.543-0.557-1.424-0.557-1.968,0L0.407,8.485c-0.543,0.557-0.543,1.46,0,2.017l7.869,8.067
	C8.82,19.127,9.7,19.127,10.244,18.57z"/>
</svg>
