<?xml version="1.0" encoding="utf-8"?>
<!-- Generator: Adobe Illustrator 16.0.0, SVG Export Plug-In . SVG Version: 6.00 Build 0)  -->
<!DOCTYPE svg PUBLIC "-//W3C//DTD SVG 1.1//EN" "http://www.w3.org/Graphics/SVG/1.1/DTD/svg11.dtd">
<svg version="1.1" id="Ebene_1" xmlns="http://www.w3.org/2000/svg" xmlns:xlink="http://www.w3.org/1999/xlink" x="0px" y="0px"
	 width="163px" height="31px" viewBox="0 0 163 31" enable-background="new 0 0 163 31" xml:space="preserve">
<path fill="#000A8B" d="M162.145,14.567c-0.732-0.595-1.664-1.571-8.261-1.571c-1.118,0-3.713,0.215-3.974,0.238
	c-5.447,0.65-7.094,3.593-7.713,4.595l6.927,0.618c0.5-0.643,1.379-1.881,4.522-1.881c0.976,0,1.569,0.166,1.855,0.453
	c0.286,0.31,0.286,0.81,0.047,1.569c-1.021,0.287-4.033,1.058-8.641,1.665c-4.684,0.604-6.237,2.383-6.569,2.786l1.31-3.951
	c0.69-2.095,1.4-6.093-4.568-6.093c-3.997,0-6.618,1.857-7.999,2.904l0.856-2.547h-6.951l-1.784,5.356
	c-0.024-1.119-0.356-2.119-1.024-2.976c-1.38-1.833-4.021-2.737-7.902-2.737c-0.95,0-1.855,0.042-2.713,0.166
	c-8.948,1.29-11.021,7.643-11.188,8.094c-2.1,7.245,5.285,8.188,8.428,8.188c8.26,0,11.829-4.45,12.733-5.783l-1.81,5.449h7.476
	l2.522-7.568c0.476-1.452,1.521-3.833,4.308-3.833c2.452,0,2,1.737,1.667,2.714l-2.881,8.688h7.498l0.81-2.404
	c0.119,0.523,0.406,1,0.856,1.453c0.906,0.855,2.522,1.254,4.855,1.283c4.588,0.062,7.428-1.736,8.284-2.283
	c-0.069,0.475-0.097,0.811-0.097,1.023c0.025,0.213,0.097,0.522,0.264,0.928h6.997c-0.188-0.668-0.263-1.19-0.238-1.621
	c0.024-0.428,0.166-1,0.406-1.734l2.332-6.977C163.018,18.064,163.316,15.519,162.145,14.567z M108.184,25.374
	c-1.049,0-3.523-0.541-2.31-4.119c1.347-3.968,4.618-4.118,5.117-4.118c3.104,0,2.589,2.461,2.333,3.862
	C113.313,21.063,112.293,25.374,108.184,25.374z M148.768,26.111c-2.002,0.186-2.047-1.146-1.881-1.618
	c0.68-1.8,4.551-1.968,7.641-2.882C153.641,25.997,149.445,26.055,148.768,26.111z"/>
<polygon fill="#000A8B" points="92.449,13.353 87.188,29.111 94.662,29.111 99.898,13.353 "/>
<path fill="#000A8B" d="M54.262,17.137c0.337-5.123-6.721-4.238-9.179-4.408c-1.119,0-4.24,0.018-7.021,0.953
	c-2.723,0.914-4.047,2.878-4.641,3.88l6.902,0.619c0.5-0.645,1.357-1.882,4.546-1.882c2.483,0,2.143,1.263,1.88,2.022
	c-0.162,0.046-4.803,1.121-8.362,1.611c-4.561,0.623-7.186,2.123-7.918,4.719c-0.369,1.307-0.58,4.523,5.569,4.523
	c5.041,0,7.427-1.736,8.285-2.285c-0.073,0.477-0.096,0.811-0.073,1.024c0,0.214,0.095,0.522,0.239,0.929h6.997
	c-0.587-1.519,0.157-3.518,0.962-5.673C53.277,20.951,53.989,18.814,54.262,17.137z M39.966,25.844
	c-0.808,0.059-2.182-0.15-1.881-1.617c0.391-1.912,5.719-2.156,7.665-2.881C45.35,22.159,45.216,25.463,39.966,25.844z"/>
<polygon fill="#000A8B" points="20.661,7.087 9.521,22.727 8.688,7.087 0,7.087 2.904,28.844 11.902,28.844 29.088,7.087 "/>
<polygon fill="#000A8B" points="25.969,13.085 20.708,28.844 28.182,28.844 33.442,13.085 "/>
<path fill="#30ABC5" d="M43.679,1.636c-1.911,6.062-8.808,10.427-13.901,8.427C30.707,5.541,36.728,0.423,43.679,1.636z"/>
<path fill="#000A8B" d="M67.432,7.252h16.032c7.069,0,7.062,3.897,6.563,5.434c-1.02,3.155-4.631,4.421-6.062,4.779
	c1.872,0.379,5.233,1.245,4.078,5.418c-2.183,6.795-12.187,6.227-12.817,6.227H60.451L67.432,7.252z M70.598,24.412h4.354
	c1.47,0,4.254-0.284,4.765-2.432c0.457-1.856-1.873-2.004-3.368-2.004h-4.335L70.598,24.412z M73.347,15.805h3.706
	c1.328,0,3.805-0.387,4.227-2.104c0.478-1.945-1.563-2.015-2.855-2.015h-3.762L73.347,15.805z"/>
<path fill="#000A8B" d="M144.715,30"/>
</svg>
